<svg width="80" height="40" viewBox="0 0 80 40" fill="none" xmlns="http://www.w3.org/2000/svg">
<path fill-rule="evenodd" clip-rule="evenodd" d="M0.511719 40.2319H79.4887V0.231934H0.511719V40.2319ZM2.86525 37.8834H77.1402V2.60563H2.86525V37.8834Z" fill="black"/>
<path fill-rule="evenodd" clip-rule="evenodd" d="M29.8173 32.676H24.9439V14.145H22.1822V8.50562H29.8173V32.6961V32.676ZM17.6213 32.676H12.7479V14.145H10.0063V8.50562H17.6465V32.6961L17.6213 32.676ZM2.85498 38.9504H39.1407V1.68188H2.85498V38.9756V38.9504V38.9504ZM57.3793 13.8225V8.49554H44.7348V32.686H49.341V22.5563H54.7889V17.2596H49.341V13.8175H57.4045L57.3793 13.8225ZM67.0253 17.6023L65.463 16.9925C63.7344 16.3323 62.9432 15.5713 62.9432 14.5986C62.9432 13.2177 64.4248 12.2854 65.8057 12.2854H66.0526C66.9061 12.3279 67.713 12.6874 68.3155 13.2933C68.3918 13.3701 68.4642 13.4509 68.5322 13.5352L72.2313 11.5194C71.5818 10.5409 70.7098 9.73032 69.6866 9.15392C68.6635 8.57752 67.5183 8.25172 66.3449 8.20324H65.8611C61.1944 8.20324 58.6796 11.5042 58.6796 14.6087C58.6796 18.1365 61.3103 19.729 63.8856 20.8377L65.3975 21.4778C67.4134 22.3144 68.6733 23.1812 68.6733 24.8896C68.6929 25.3308 68.6242 25.7714 68.4715 26.1858C68.3187 26.6001 68.0848 26.9798 67.7836 27.3026C67.4823 27.6255 67.1197 27.885 66.7169 28.0661C66.3141 28.2471 65.8793 28.346 65.4378 28.3569C64.972 28.3636 64.5096 28.278 64.0771 28.105C63.6446 27.932 63.2506 27.6751 62.918 27.349C62.6062 27.0455 62.3595 26.6816 62.1932 26.2795C62.0268 25.8774 61.9442 25.4457 61.9503 25.0106V24.043L57.5557 24.9703L57.6515 25.6809C57.8541 27.5323 58.73 29.2447 60.1126 30.4925C61.4952 31.7404 63.2881 32.4367 65.1505 32.4492C69.5603 32.4492 72.8814 29.1986 72.8814 24.8896C72.8814 20.49 69.7367 18.6908 66.99 17.6123L67.0253 17.6023V17.6023Z" fill="black"/>
</svg>
