<svg width="140" height="38" viewBox="0 0 140 38" fill="none" xmlns="http://www.w3.org/2000/svg">
<path fill-rule="evenodd" clip-rule="evenodd" d="M31.2181 1.78564H6.33377C3.87403 1.78564 1.88574 3.77393 1.88574 6.22342V31.1283C1.88574 33.588 3.88428 35.5763 6.33377 35.5763H31.2181C33.6778 35.5763 35.6661 33.5777 35.6661 31.1283V6.23367C35.6661 3.77393 33.6676 1.78564 31.2181 1.78564ZM9.62363 19.875C9.62363 14.5968 13.8974 10.323 19.1654 10.323C24.4435 10.323 28.7071 14.5865 28.7071 19.8647C28.7071 25.1429 24.4333 29.4167 19.1654 29.4167C13.8974 29.4167 9.62363 25.1531 9.62363 19.875ZM12.4421 19.875C12.4421 23.5851 15.4553 26.5982 19.1654 26.5982C22.8857 26.5982 25.8886 23.5851 25.8886 19.875C25.8886 16.1649 22.8755 13.1517 19.1654 13.1517C15.4553 13.1517 12.4421 16.1649 12.4421 19.875ZM19.1654 19.5367V14.525C19.1654 14.4123 19.2678 14.3303 19.3703 14.3303C21.3484 14.402 23.0599 15.5089 23.9823 17.1282C24.0336 17.2307 24.0028 17.3537 23.9003 17.405L19.4523 19.711C19.3191 19.7827 19.1654 19.6802 19.1654 19.5367ZM12.3498 10.2615L12.934 10.8457C13.016 10.9379 13.0058 11.0814 12.9033 11.1429C12.4318 11.4811 12.0014 11.8501 11.5812 12.2703C11.1712 12.6802 10.8023 13.1209 10.464 13.5821C10.382 13.6744 10.2488 13.6949 10.1566 13.6026L9.58263 13.0287C9.0087 12.4547 9.0087 11.5323 9.58263 10.9584L10.2796 10.2615C10.8535 9.68755 11.7759 9.68755 12.3498 10.2615ZM22.2913 8.17071V9.32883C22.2913 9.46207 22.1683 9.55431 22.0453 9.52356C21.1126 9.26734 20.1492 9.1341 19.1756 9.1341C18.161 9.1341 17.1566 9.27759 16.2034 9.55431C16.0702 9.58506 15.9472 9.49282 15.9472 9.35958V8.17071C15.9472 7.36104 16.6031 6.70511 17.4128 6.70511H20.8257C21.6353 6.70511 22.2913 7.36104 22.2913 8.17071Z" fill="#5468FF"/>
<path d="M86.3469 27.6334C86.3469 30.3699 85.65 32.3684 84.2459 33.6393C82.8418 34.9101 80.6997 35.5456 77.8096 35.5456C76.7539 35.5456 74.5607 35.3406 72.8081 34.9511L73.4538 31.774C74.9194 32.0814 76.8564 32.1634 77.8711 32.1634C79.4801 32.1634 80.628 31.8355 81.3147 31.1795C82.0014 30.5236 82.3396 29.55 82.3396 28.2586V27.6027C81.9399 27.7974 81.4172 27.9921 80.7715 28.1971C80.1258 28.3918 79.3776 28.4943 78.5372 28.4943C77.4303 28.4943 76.426 28.3201 75.5138 27.9716C74.6017 27.6232 73.8125 27.1107 73.1668 26.4343C72.5211 25.7579 72.0087 24.9072 71.65 23.8926C71.2913 22.8779 71.1068 21.0639 71.1068 19.7315C71.1068 18.4811 71.3015 16.9131 71.6807 15.8677C72.0702 14.8223 72.6236 13.9204 73.3718 13.1722C74.1097 12.424 75.0116 11.8501 76.0672 11.4299C77.1229 11.0097 78.363 10.7432 79.7056 10.7432C81.0072 10.7432 82.2063 10.9072 83.3747 11.1019C84.5431 11.2967 85.5372 11.5016 86.3469 11.7271V27.6334V27.6334ZM75.2063 19.7213C75.2063 21.4021 75.5753 23.2674 76.3132 24.0463C77.0511 24.8252 78.0043 25.2147 79.1727 25.2147C79.8081 25.2147 80.4128 25.1224 80.9765 24.9482C81.5402 24.774 81.9911 24.569 82.3498 24.323V14.3713C82.0629 14.3098 80.8637 14.0639 79.7056 14.0331C78.2503 13.9921 77.1434 14.5866 76.3645 15.5397C75.5958 16.4929 75.2063 18.1634 75.2063 19.7213ZM105.369 19.7213C105.369 21.0741 105.174 22.099 104.774 23.2161C104.375 24.3333 103.811 25.2864 103.083 26.0756C102.356 26.8647 101.485 27.4797 100.46 27.9101C99.4347 28.3406 97.8564 28.5866 97.0672 28.5866C96.2781 28.5763 94.71 28.3508 93.6954 27.9101C92.6807 27.4694 91.8096 26.8647 91.0819 26.0756C90.3542 25.2864 89.7905 24.3333 89.3806 23.2161C88.9706 22.099 88.7656 21.0741 88.7656 19.7213C88.7656 18.3684 88.9501 17.0668 89.3601 15.9599C89.77 14.853 90.344 13.9101 91.0819 13.121C91.8198 12.3318 92.7012 11.7271 93.7056 11.2967C94.7202 10.8662 95.8374 10.6612 97.0467 10.6612C98.2561 10.6612 99.3732 10.8765 100.398 11.2967C101.423 11.7271 102.304 12.3318 103.022 13.121C103.75 13.9101 104.313 14.853 104.723 15.9599C105.154 17.0668 105.369 18.3684 105.369 19.7213ZM101.269 19.7315C101.269 17.9994 100.89 16.5543 100.152 15.55C99.4142 14.5353 98.3791 14.0331 97.057 14.0331C95.7349 14.0331 94.6997 14.5353 93.9618 15.55C93.2239 16.5646 92.8652 17.9994 92.8652 19.7315C92.8652 21.4841 93.2342 22.6627 93.9721 23.6773C94.71 24.7022 95.7451 25.2044 97.0672 25.2044C98.3893 25.2044 99.4245 24.692 100.162 23.6773C100.9 22.6524 101.269 21.4841 101.269 19.7315ZM114.296 28.5866C107.726 28.6173 107.726 23.2776 107.726 22.427L107.716 3.48699L111.723 2.85156V21.6685C111.723 22.1502 111.723 25.2044 114.296 25.2147V28.5866ZM121.357 28.5866H117.329V11.2864L121.357 10.651V28.5866ZM119.338 8.75493C120.681 8.75493 121.777 7.66855 121.777 6.32594C121.777 4.98333 120.691 3.89695 119.338 3.89695C117.985 3.89695 116.899 4.98333 116.899 6.32594C116.899 7.66855 117.995 8.75493 119.338 8.75493ZM131.37 10.6612C132.692 10.6612 133.81 10.8252 134.711 11.1532C135.613 11.4811 136.341 11.9423 136.874 12.5265C137.407 13.1107 137.786 13.9101 138.012 14.7505C138.247 15.5909 138.36 16.5134 138.36 17.528V27.8384C137.745 27.9716 136.812 28.1254 135.562 28.3098C134.312 28.4943 132.908 28.5866 131.35 28.5866C130.315 28.5866 129.362 28.4841 128.511 28.2893C127.65 28.0946 126.922 27.7769 126.307 27.3362C125.703 26.8955 125.231 26.3318 124.883 25.6349C124.545 24.9379 124.37 23.9541 124.37 22.9292C124.37 21.9453 124.565 21.3201 124.944 20.6437C125.334 19.9672 125.856 19.4138 126.512 18.9833C127.179 18.5529 127.937 18.2454 128.808 18.0609C129.679 17.8765 130.591 17.7842 131.534 17.7842C131.975 17.7842 132.436 17.815 132.928 17.8662C133.42 17.9175 133.933 18.0097 134.486 18.1429V17.487C134.486 17.0258 134.435 16.5851 134.322 16.1751C134.209 15.7549 134.015 15.3962 133.748 15.0785C133.471 14.7608 133.113 14.5148 132.662 14.3406C132.211 14.1664 131.637 14.0331 130.95 14.0331C130.028 14.0331 129.187 14.1459 128.419 14.2791C127.65 14.4123 127.015 14.5661 126.533 14.7403L126.051 11.4504C126.553 11.2762 127.301 11.1019 128.265 10.9277C129.228 10.7535 130.263 10.6612 131.37 10.6612ZM131.709 25.2044C132.938 25.2044 133.851 25.1327 134.486 25.0097V20.9306C134.26 20.8691 133.943 20.7974 133.523 20.7359C133.102 20.6744 132.641 20.6334 132.129 20.6334C131.688 20.6334 131.237 20.6642 130.786 20.7359C130.335 20.7974 129.925 20.9204 129.566 21.0946C129.208 21.2688 128.911 21.5148 128.695 21.8325C128.47 22.1502 128.367 22.3347 128.367 22.8164C128.367 23.7593 128.695 24.3025 129.29 24.6612C129.894 25.0302 130.694 25.2044 131.709 25.2044ZM52.5665 10.7637C53.8886 10.7637 55.0058 10.9277 55.9077 11.2557C56.8096 11.5836 57.5372 12.0448 58.0702 12.629C58.6134 13.2235 58.9823 14.0126 59.2078 14.853C59.4435 15.6934 59.5563 16.6158 59.5563 17.6305V27.9409C58.9413 28.0741 58.0087 28.2278 56.7583 28.4123C55.508 28.5968 54.1039 28.689 52.546 28.689C51.5109 28.689 50.5577 28.5866 49.7071 28.3918C48.8462 28.1971 48.1185 27.8794 47.5036 27.4387C46.8989 26.998 46.4274 26.4343 46.079 25.7374C45.7408 25.0404 45.5665 24.0565 45.5665 23.0317C45.5665 22.0478 45.7613 21.4226 46.1405 20.7461C46.5299 20.0697 47.0526 19.5163 47.7085 19.0858C48.3747 18.6554 49.1331 18.3479 50.0043 18.1634C50.8755 17.9789 51.7876 17.8867 52.7305 17.8867C53.1712 17.8867 53.6324 17.9175 54.1244 17.9687C54.6061 18.0199 55.1287 18.1122 55.6822 18.2454V17.5895C55.6822 17.1283 55.6309 16.6876 55.5182 16.2776C55.4055 15.8574 55.2107 15.4987 54.9443 15.181C54.6675 14.8633 54.3088 14.6173 53.8579 14.4431C53.4069 14.2688 52.833 14.1356 52.1463 14.1356C51.2239 14.1356 50.3835 14.2483 49.6148 14.3816C48.8462 14.5148 48.2107 14.6685 47.729 14.8428L47.2473 11.5529C47.7495 11.3786 48.4977 11.2044 49.4611 11.0302C50.4245 10.8457 51.4596 10.7637 52.5665 10.7637ZM52.915 25.3172C54.1449 25.3172 55.057 25.2454 55.6924 25.1224V21.0434C55.467 20.9819 55.1492 20.9101 54.729 20.8486C54.3088 20.7871 53.8476 20.7461 53.3352 20.7461C52.8945 20.7461 52.4435 20.7769 51.9926 20.8486C51.5416 20.9101 51.1317 21.0331 50.773 21.2073C50.4143 21.3816 50.117 21.6276 49.9018 21.9453C49.6763 22.263 49.5738 22.4475 49.5738 22.9292C49.5738 23.8721 49.9018 24.4153 50.4962 24.774C51.0907 25.1327 51.9003 25.3172 52.915 25.3172ZM69.1595 28.5866C62.5899 28.6173 62.5899 23.2776 62.5899 22.427L62.5797 3.48699L66.587 2.85156V21.6685C66.587 22.1502 66.587 25.2044 69.1595 25.2147V28.5866V28.5866Z" fill="#5468FF"/>
</svg>
