<svg width="148" height="33" viewBox="0 0 148 33" fill="none" xmlns="http://www.w3.org/2000/svg">
<g clip-path="url(#clip0)">
<path d="M10.2463 6.12671H0V31.8964H10.2463V23.1453H13.5005V31.8964H23.7468V6.12671H13.5005V14.8779H10.2463V6.12671Z" fill="#151515"/>
<path d="M136.347 12.5691C136.301 12.5739 136.259 12.594 136.227 12.626C136.195 12.658 136.175 12.7 136.171 12.745C136.067 13.5102 135.773 14.2372 135.316 14.8594C134.859 15.4817 134.253 15.9794 133.554 16.3071C133.537 16.3152 133.519 16.3189 133.5 16.3179C133.482 16.3169 133.464 16.3112 133.448 16.3013C133.432 16.2914 133.419 16.2776 133.41 16.2613C133.401 16.2451 133.396 16.2267 133.396 16.2081C133.396 16.1895 133.401 16.1712 133.41 16.1549C133.419 16.1386 133.432 16.1249 133.448 16.115C133.464 16.1051 133.482 16.0994 133.5 16.0983C133.519 16.0973 133.537 16.1011 133.554 16.1092C134.126 15.6749 134.598 15.1218 134.935 14.4879C135.273 13.854 135.47 13.1543 135.511 12.4372C135.508 12.369 135.519 12.3008 135.543 12.2369C135.567 12.173 135.604 12.1146 135.651 12.0653C135.698 12.016 135.755 11.9768 135.818 11.95C135.881 11.9232 135.948 11.9094 136.017 11.9095C137.541 11.8483 139.057 11.6496 140.546 11.3158C140.537 11.2134 140.537 11.1104 140.546 11.008C140.559 10.9761 140.561 10.9407 140.552 10.9076C140.542 10.8744 140.522 10.8453 140.494 10.8251C140.466 10.8048 140.433 10.7944 140.398 10.7957C140.364 10.797 140.331 10.8098 140.304 10.8321L140.15 10.964C140.097 11.005 140.031 11.0272 139.964 11.0272C139.896 11.0272 139.83 11.005 139.777 10.964C139.733 10.9156 139.709 10.853 139.709 10.7881C139.709 10.7232 139.733 10.6606 139.777 10.6122C140.255 9.93413 140.64 9.19451 140.92 8.41343C140.926 8.38305 140.923 8.35157 140.91 8.32312C140.898 8.29466 140.878 8.27054 140.852 8.25392C140.825 8.23729 140.795 8.22894 140.764 8.22993C140.733 8.23093 140.703 8.24124 140.678 8.25952L140.128 8.78723C140.073 8.82504 140.008 8.84529 139.942 8.84529C139.875 8.84529 139.81 8.82504 139.755 8.78723C139.719 8.73561 139.699 8.67422 139.699 8.61132C139.699 8.54843 139.719 8.48704 139.755 8.43542C140.274 7.65426 140.66 6.79238 140.898 5.88483C140.904 5.85219 140.899 5.81856 140.884 5.78896C140.869 5.75936 140.845 5.73536 140.815 5.72054C140.786 5.70571 140.752 5.70086 140.719 5.70669C140.687 5.71252 140.657 5.72873 140.634 5.75291L140.062 6.43453C140.007 6.47235 139.942 6.49259 139.876 6.49259C139.809 6.49259 139.744 6.47235 139.689 6.43453C139.653 6.38291 139.633 6.32152 139.633 6.25863C139.633 6.19573 139.653 6.13434 139.689 6.08272C140.102 5.24102 140.362 4.33281 140.458 3.40021C140.447 3.37164 140.427 3.34715 140.402 3.3299C140.376 3.31264 140.346 3.30342 140.315 3.30342C140.285 3.30342 140.254 3.31264 140.229 3.3299C140.204 3.34715 140.184 3.37164 140.172 3.40021C139.782 4.02495 139.356 4.62692 138.897 5.20321C138.847 5.24244 138.785 5.26375 138.721 5.26375C138.657 5.26375 138.596 5.24244 138.545 5.20321C138.486 5.17453 138.44 5.12483 138.416 5.06383C138.391 5.00283 138.39 4.93493 138.413 4.87339C138.876 3.6239 139.02 2.27861 138.831 0.959564C138.831 0.783661 138.523 0.783661 138.523 0.959564C138.053 4.79992 136.33 8.37807 133.62 11.1399C133.604 11.1744 133.596 11.2119 133.596 11.2499C133.596 11.2878 133.604 11.3253 133.62 11.3598C133.876 11.9039 133.997 12.5012 133.974 13.1019C133.951 13.7025 133.784 14.2889 133.488 14.8119C133.445 14.8884 133.385 14.954 133.313 15.0036C133.24 15.0531 133.157 15.0854 133.07 15.0977C132.978 15.1101 132.884 15.1006 132.797 15.07C132.709 15.0395 132.629 14.9887 132.565 14.9218V14.7899C131.066 13.1396 129.078 12.0142 126.892 11.5797C125.382 11.2525 123.841 11.0976 122.296 11.1179C121.226 11.1186 120.159 11.2217 119.108 11.4258C117.177 11.7642 115.384 12.6494 113.941 13.9764C112.674 15.1836 111.742 16.6988 111.236 18.3739C110.73 20.0314 110.58 21.7775 110.797 23.4971C110.969 25.3933 111.678 27.2011 112.842 28.7082C114.364 30.6142 116.515 31.9159 118.91 32.3801C120.202 32.6728 121.522 32.8203 122.846 32.8199C124.106 32.8637 125.367 32.7678 126.606 32.5341C128.511 32.1519 130.264 31.2257 131.653 29.8676C133.042 28.5096 134.008 26.7779 134.434 24.8823C134.808 23.121 134.808 21.3006 134.434 19.5393C134.412 19.4335 134.417 19.324 134.448 19.2205C134.478 19.117 134.534 19.0226 134.609 18.9456C134.673 18.869 134.754 18.809 134.846 18.7707C134.938 18.7324 135.038 18.717 135.137 18.7257C136.788 19.211 138.554 19.1258 140.15 18.4839C140.304 18.4839 140.326 18.242 140.15 18.198C140.03 18.1642 139.912 18.12 139.799 18.0661C139.725 18.0454 139.661 17.9979 139.62 17.9328C139.58 17.8677 139.565 17.7898 139.579 17.7143C139.589 17.6346 139.629 17.5616 139.69 17.509C139.75 17.4564 139.828 17.4277 139.909 17.4284C140.65 17.4214 141.388 17.3254 142.107 17.1426C142.148 17.1426 142.187 17.1264 142.216 17.0975C142.245 17.0687 142.261 17.0295 142.261 16.9887C142.261 16.9479 142.245 16.9087 142.216 16.8798C142.187 16.851 142.148 16.8348 142.107 16.8348C141.816 16.7853 141.529 16.7118 141.25 16.6149C141.174 16.5897 141.11 16.5379 141.07 16.4692C141.029 16.4005 141.015 16.3195 141.03 16.2411C141.03 16.0652 141.184 15.9992 141.36 15.9772C142.098 15.8885 142.832 15.7637 143.559 15.6034C143.599 15.6034 143.638 15.5872 143.667 15.5584C143.696 15.5295 143.712 15.4904 143.712 15.4495C143.712 15.4087 143.696 15.3696 143.667 15.3407C143.638 15.3118 143.599 15.2956 143.559 15.2956H142.657C142.614 15.2928 142.571 15.2815 142.532 15.2623C142.493 15.2431 142.459 15.2164 142.43 15.1837C142.401 15.151 142.38 15.113 142.366 15.0718C142.352 15.0306 142.346 14.9871 142.349 14.9438C142.353 14.8705 142.38 14.8003 142.428 14.7446C142.476 14.6888 142.541 14.6506 142.613 14.636C143.608 14.4731 144.577 14.1773 145.493 13.7565C145.522 13.7451 145.547 13.7253 145.564 13.6999C145.581 13.6744 145.59 13.6443 145.59 13.6136C145.59 13.5828 145.581 13.5527 145.564 13.5272C145.547 13.5018 145.522 13.482 145.493 13.4706C144.746 13.4706 143.471 13.6026 142.943 13.5806C142.859 13.5869 142.775 13.5608 142.71 13.5077C142.645 13.4545 142.602 13.3783 142.591 13.2947C142.542 13.2099 142.527 13.1101 142.547 13.0144C142.567 12.9187 142.623 12.834 142.702 12.7766C142.781 12.7192 142.879 12.6932 142.976 12.7036C143.073 12.714 143.163 12.7601 143.229 12.833C145.051 12.1096 146.7 11.0079 148.066 9.60077C148.088 9.57447 148.101 9.54144 148.102 9.50698C148.104 9.47253 148.093 9.43864 148.073 9.41076C148.053 9.38288 148.024 9.36261 147.991 9.35321C147.957 9.3438 147.922 9.34581 147.89 9.35891C144.353 11.2358 140.454 12.3305 136.456 12.5691H136.347ZM122.67 26.2236C120.889 26.2236 119.878 24.6624 119.878 21.826C119.878 18.9896 120.889 17.4284 122.67 17.4284C124.451 17.4284 125.441 19.0116 125.441 21.826C125.441 24.6404 124.429 26.2236 122.67 26.2236Z" fill="#151515"/>
<path d="M83.0482 9.33688C83.9226 9.3366 84.777 9.07568 85.5024 8.58743C86.2277 8.09918 86.7911 7.40578 87.1205 6.59581C87.4498 5.78583 87.5302 4.89606 87.3515 4.04015C87.1727 3.18424 86.7428 2.40106 86.1167 1.79066C85.4907 1.18025 84.6969 0.770338 83.8367 0.613277C82.9766 0.456216 82.0891 0.55914 81.2877 0.908902C80.4864 1.25866 79.8074 1.83938 79.3377 2.57688C78.868 3.31437 78.6288 4.17515 78.6506 5.04925C78.6355 5.63087 78.7389 6.20947 78.9546 6.74985C79.1702 7.29022 79.4936 7.78104 79.905 8.19245C80.3164 8.60385 80.8072 8.92722 81.3476 9.14287C81.888 9.35852 82.4666 9.46193 83.0482 9.44682" fill="#151515"/>
<path d="M77.6391 11.8215V31.8964H88.4571V11.9095C86.7481 12.1822 85.0206 12.3219 83.29 12.3273C81.3951 12.3265 79.504 12.1572 77.6391 11.8215" fill="#151515"/>
<path d="M102.046 11.8216V6.12671C98.7919 8.5429 95.1045 10.312 91.1837 11.3378V23.607C91.1837 29.4338 94.4379 32.7759 99.9788 32.7759C105.08 32.7759 107.894 29.8955 108.774 24.2667C108.774 24.0908 108.576 24.0248 108.488 24.2667C108.185 24.8013 107.753 25.2509 107.23 25.5738C106.707 25.8967 106.111 26.0823 105.498 26.1136C103.299 26.1136 102.024 24.4865 102.024 22.0019V19.6272H108.752V11.8216H102.156H102.046Z" fill="#151515"/>
<path d="M38.3905 10.832C30.255 10.832 27.6825 15.9112 27.0008 18.6817C27.0008 18.9895 26.8469 19.2973 26.781 19.6491C26.715 20.0009 26.8909 19.7811 26.9349 19.6491C27.1022 19.3967 27.2937 19.161 27.5066 18.9455C28.9258 17.5296 30.8246 16.6979 32.8276 16.6148C37.533 16.4169 38.1267 19.6711 38.1267 19.6711H34.4767C33.5162 19.6592 32.5574 19.7551 31.6183 19.957C29.9206 20.1752 28.3658 21.0203 27.2592 22.3262C26.1526 23.6321 25.5743 25.3045 25.6376 27.0151C25.5672 27.7931 25.6682 28.5771 25.9336 29.3119C26.199 30.0466 26.6223 30.7142 27.1736 31.2677C27.725 31.8211 28.391 32.247 29.1247 32.5151C29.8585 32.7833 30.6421 32.8873 31.4204 32.8198C32.8843 32.9011 34.3256 32.4317 35.4608 31.504C36.5961 30.5763 37.3431 29.2573 37.555 27.8066C37.5656 27.7387 37.6003 27.6768 37.6528 27.6324C37.7053 27.5879 37.7721 27.5639 37.8408 27.5648C37.8813 27.5608 37.9222 27.5662 37.9602 27.5806C37.9982 27.595 38.0324 27.618 38.0601 27.6478C38.0878 27.6776 38.1082 27.7134 38.1197 27.7524C38.1313 27.7914 38.1337 27.8325 38.1267 27.8726V32.0063H48.373V20.7485C48.373 16.4609 46.8778 10.898 38.3905 10.898V10.832ZM35.1583 28.1804C34.6079 28.1826 34.0766 27.9784 33.6695 27.6079C33.2624 27.2374 33.0091 26.7277 32.9595 26.1795C32.9 25.787 32.9282 25.3862 33.0423 25.006C33.1563 24.6258 33.3534 24.2756 33.6192 23.9807C33.856 23.7304 34.1428 23.5325 34.461 23.3999C34.7791 23.2674 35.1216 23.2031 35.4662 23.2112H37.6649V23.7829C37.6649 25.0801 37.3351 28.1804 34.9824 28.1804" fill="#151515"/>
<path d="M73.6154 13.4266C72.9692 12.5874 72.1118 11.9348 71.1307 11.5356C69.5905 10.8873 67.8728 10.7941 66.2714 11.2718C65.5656 11.4571 64.9042 11.7823 64.3263 12.228C63.7484 12.6736 63.2659 13.2308 62.9073 13.8663C62.1671 15.087 61.6949 16.4511 61.5221 17.8681L61.3901 19.0774C61.3782 19.2164 61.3782 19.3562 61.3901 19.4952C61.3792 19.573 61.3389 19.6436 61.2776 19.6926C61.2163 19.7417 61.1386 19.7654 61.0603 19.7591V19.7591C60.9787 19.7591 60.9004 19.7266 60.8426 19.6689C60.7849 19.6112 60.7525 19.5329 60.7525 19.4512V6.25854H50.5062V31.9183H62.9513C64.0629 31.9339 65.1738 31.853 66.2714 31.6765C68.0233 31.3912 69.686 30.7066 71.1307 29.6756C73.0376 28.285 74.4233 26.2954 75.0665 24.0247C75.6973 21.8836 75.8178 19.6244 75.4184 17.4284C75.2305 15.913 74.621 14.4808 73.6593 13.2946L73.6154 13.4266ZM64.8642 26.2894C64.5698 26.7706 64.1605 27.1711 63.6731 27.4551C63.1857 27.739 62.6355 27.8976 62.0718 27.9165C61.7687 27.8924 61.4675 27.8483 61.1703 27.7846V24.9262C61.1703 20.5286 62.4236 19.5612 63.369 19.5612C64.7543 19.5612 65.5678 20.8804 65.5678 23.1232C65.5825 24.2767 65.2944 25.414 64.7323 26.4214" fill="#151515"/>
</g>
<defs>
<clipPath id="clip0">
<rect width="148" height="31.9923" fill="white" transform="translate(0 0.761719)"/>
</clipPath>
</defs>
</svg>
