<svg width="124" height="32" viewBox="0 0 124 32" fill="none" xmlns="http://www.w3.org/2000/svg">
<g clip-path="url(#clip0)">
<path d="M0.503718 25.8622H3.70575C3.77439 25.8744 3.84495 25.8699 3.91147 25.849C3.97799 25.8282 4.03851 25.7916 4.08791 25.7424C4.13731 25.6932 4.17414 25.6329 4.19528 25.5664C4.21643 25.5 4.22127 25.4295 4.20939 25.3608V15.0947H6.58432V25.3608C6.57244 25.4295 6.57728 25.5 6.59843 25.5664C6.61957 25.6329 6.6564 25.6932 6.7058 25.7424C6.7552 25.7916 6.81572 25.8282 6.88224 25.849C6.94876 25.8699 7.01932 25.8744 7.08796 25.8622H10.2922C10.3608 25.8744 10.4314 25.8699 10.4979 25.849C10.5644 25.8282 10.6249 25.7916 10.6743 25.7424C10.7237 25.6932 10.7606 25.6329 10.7817 25.5664C10.8028 25.5 10.8077 25.4295 10.7958 25.3608V1.24241C10.8051 1.17408 10.7986 1.10451 10.7765 1.03915C10.7545 0.973788 10.7177 0.914401 10.6689 0.865634C10.6202 0.816866 10.5608 0.780038 10.4954 0.758031C10.4301 0.736023 10.3605 0.729432 10.2922 0.738772H7.08796C7.01954 0.72897 6.94978 0.735239 6.8842 0.757084C6.81863 0.778928 6.75904 0.815746 6.71017 0.86462C6.66129 0.913494 6.62448 0.97308 6.60263 1.03866C6.58079 1.10423 6.57452 1.17399 6.58432 1.24241V10.8963H4.20939V1.24241C4.21919 1.17399 4.21292 1.10423 4.19108 1.03866C4.16923 0.97308 4.13242 0.913494 4.08354 0.86462C4.03467 0.815746 3.97508 0.778928 3.90951 0.757084C3.84393 0.735239 3.77417 0.72897 3.70575 0.738772H0.503718C0.434647 0.727449 0.363878 0.732578 0.297161 0.753742C0.230443 0.774907 0.169659 0.81151 0.119745 0.860578C0.0698307 0.909646 0.0321941 0.969796 0.00989247 1.03614C-0.0124092 1.10249 -0.0187471 1.17316 -0.0086065 1.24241V25.3608C-0.0204829 25.4295 -0.0156438 25.5 0.00550156 25.5664C0.0266469 25.6329 0.0634766 25.6932 0.112877 25.7424C0.162277 25.7916 0.222795 25.8282 0.289313 25.849C0.355831 25.8699 0.426394 25.8744 0.495035 25.8622" fill="black"/>
<path d="M123.499 31.5087C123.567 31.5205 123.638 31.5157 123.704 31.4946C123.771 31.4734 123.831 31.4366 123.88 31.3872C123.929 31.3378 123.966 31.2773 123.987 31.2108C124.008 31.1442 124.012 31.0737 124 31.005V29.2879C124.012 29.2192 124.008 29.1487 123.987 29.0822C123.966 29.0156 123.929 28.9551 123.88 28.9057C123.831 28.8563 123.771 28.8195 123.704 28.7983C123.638 28.7772 123.567 28.7724 123.499 28.7842H0.501618C0.432293 28.7707 0.360723 28.7744 0.293115 28.7948C0.225507 28.8152 0.163902 28.8518 0.113642 28.9014C0.0633826 28.9511 0.0259858 29.0122 0.00469509 29.0795C-0.0165956 29.1469 -0.0211374 29.2184 -0.00853641 29.2879V31.005C-0.0207094 31.0737 -0.0161751 31.1442 0.00468309 31.2108C0.0255413 31.2773 0.06211 31.3378 0.111297 31.3872C0.160484 31.4366 0.220844 31.4734 0.287271 31.4946C0.353699 31.5157 0.424241 31.5205 0.492934 31.5087" fill="black"/>
<path d="M15.0052 24.7855C15.4196 25.1961 15.908 25.5246 16.4445 25.7537C17.0005 25.9953 17.6009 26.118 18.2072 26.1141H19.5748C20.1818 26.118 20.7829 25.9953 21.3398 25.7537C22.4241 25.2953 23.2881 24.4337 23.7494 23.3506C23.9907 22.796 24.1135 22.197 24.1098 21.5922V1.24247C24.1196 1.17405 24.1133 1.10429 24.0915 1.03872C24.0696 0.97314 24.0328 0.913554 23.9839 0.86468C23.9351 0.815806 23.8755 0.778988 23.8099 0.757144C23.7443 0.735299 23.6746 0.72903 23.6062 0.738832H20.3976C20.3291 0.72912 20.2593 0.735434 20.1936 0.757275C20.128 0.779117 20.0683 0.815892 20.0193 0.864706C19.9703 0.913521 19.9332 0.973044 19.9111 1.03859C19.889 1.10414 19.8824 1.17393 19.8918 1.24247V21.412C19.894 21.5253 19.8729 21.6379 19.83 21.7428C19.7871 21.8477 19.7231 21.9427 19.6421 22.022C19.5625 22.1033 19.4671 22.1675 19.3619 22.2108C19.2567 22.2541 19.1437 22.2755 19.03 22.2738H18.7477C18.5174 22.2738 18.2966 22.1824 18.1337 22.0195C17.9709 21.8567 17.8794 21.6358 17.8794 21.4055V1.24247C17.8917 1.17362 17.8871 1.10282 17.8662 1.0361C17.8452 0.96938 17.8084 0.908712 17.759 0.859258C17.7095 0.809804 17.6489 0.773029 17.5821 0.752062C17.5154 0.731095 17.4446 0.726556 17.3758 0.738832H14.1781C14.1087 0.725339 14.0372 0.728962 13.9696 0.749386C13.902 0.769809 13.8404 0.806418 13.7901 0.856036C13.7398 0.905654 13.7024 0.966783 13.6811 1.03412C13.6599 1.10146 13.6553 1.17298 13.6679 1.24247V21.5922C13.6646 22.1968 13.7865 22.7955 14.0261 23.3506C14.2563 23.8863 14.5863 24.3733 14.9987 24.7855" fill="black"/>
<path d="M27.9586 24.7856C28.373 25.1961 28.8614 25.5246 29.3979 25.7538C29.9547 25.9953 30.5558 26.118 31.1628 26.1141H32.5283C33.1352 26.118 33.7363 25.9953 34.2932 25.7538C35.3775 25.2953 36.2415 24.4337 36.7028 23.3506C36.9441 22.796 37.0669 22.1971 37.0632 21.5922V17.105C37.0756 16.9584 37.0352 16.8121 36.9492 16.6927C36.8632 16.5732 36.7373 16.4885 36.5943 16.4538L33.3206 16.0196C33.008 15.9241 32.8539 16.0435 32.8539 16.38V21.4034C32.8558 21.5168 32.8344 21.6295 32.7911 21.7344C32.7478 21.8393 32.6835 21.9343 32.6021 22.0134C32.5224 22.0946 32.4271 22.1588 32.3218 22.2021C32.2166 22.2454 32.1037 22.2669 31.9899 22.2652H31.7012C31.4709 22.2652 31.25 22.1737 31.0871 22.0109C30.9243 21.848 30.8328 21.6271 30.8328 21.3968V5.18914C30.8328 4.95884 30.9243 4.73797 31.0871 4.57513C31.25 4.41228 31.4709 4.32079 31.7012 4.32079H31.9899C32.1035 4.31884 32.2163 4.33996 32.3216 4.38287C32.4268 4.42578 32.5222 4.48959 32.6021 4.57044C32.6835 4.64955 32.7478 4.74448 32.7911 4.8494C32.8344 4.95431 32.8558 5.06698 32.8539 5.18046V8.65385C32.8539 8.99033 33.008 9.10973 33.3206 9.01204L36.5943 8.51057C36.7375 8.47626 36.8637 8.39162 36.9498 8.27208C37.0358 8.15254 37.0761 8.00605 37.0632 7.85931V5.00462C37.0672 4.39905 36.9444 3.79935 36.7028 3.24404C36.2396 2.163 35.375 1.30384 34.291 0.847405C33.7337 0.607611 33.1328 0.485659 32.5261 0.489211H31.1606C30.5539 0.485659 29.953 0.607611 29.3957 0.847405C28.3113 1.30585 27.4474 2.16746 26.986 3.25056C26.7461 3.80401 26.6241 4.4014 26.6278 5.00462V21.5857C26.6242 22.1905 26.7469 22.7895 26.9882 23.3441C27.217 23.8801 27.5464 24.3672 27.9586 24.7791" fill="black"/>
<path d="M39.9352 25.8622H43.1373C43.2059 25.8744 43.2765 25.8698 43.343 25.849C43.4095 25.8281 43.47 25.7916 43.5194 25.7424C43.5688 25.6932 43.6056 25.6328 43.6268 25.5664C43.6479 25.5 43.6528 25.4294 43.6409 25.3607V18.8286L44.2531 17.309L46.882 25.4324C46.937 25.56 47.0277 25.6689 47.1433 25.7459C47.2589 25.823 47.3944 25.8649 47.5333 25.8666H51.0957C51.1589 25.8702 51.222 25.8572 51.2787 25.8291C51.3354 25.8009 51.3838 25.7585 51.4191 25.7059C51.4537 25.6569 51.475 25.5997 51.4811 25.54C51.4872 25.4803 51.4778 25.4201 51.4539 25.3651L46.7062 11.8297L51.5298 1.24239C51.5528 1.18852 51.5647 1.13055 51.5647 1.07198C51.5647 1.01341 51.5528 0.955439 51.5298 0.901566C51.5045 0.847857 51.4631 0.803342 51.4114 0.774175C51.3597 0.745008 51.3002 0.73263 51.2411 0.738751H47.6418C47.4963 0.727777 47.3511 0.764114 47.2278 0.84235C47.1046 0.920586 47.01 1.03653 46.958 1.17292L43.6474 8.95766V1.24239C43.6572 1.17397 43.6509 1.10421 43.6291 1.03863C43.6073 0.973059 43.5704 0.913473 43.5216 0.864599C43.4727 0.815725 43.4131 0.778906 43.3475 0.757062C43.2819 0.735218 43.2122 0.728949 43.1438 0.738751H39.9352C39.8668 0.728949 39.797 0.735218 39.7315 0.757062C39.6659 0.778906 39.6063 0.815725 39.5574 0.864599C39.5086 0.913473 39.4717 0.973059 39.4499 1.03863C39.428 1.10421 39.4218 1.17397 39.4316 1.24239V25.3607C39.4197 25.4294 39.4245 25.5 39.4457 25.5664C39.4668 25.6328 39.5037 25.6932 39.5531 25.7424C39.6025 25.7916 39.663 25.8281 39.7295 25.849C39.796 25.8698 39.8666 25.8744 39.9352 25.8622" fill="black"/>
<path d="M54.6232 25.8622H62.7922C62.8608 25.8744 62.9314 25.8698 62.9979 25.849C63.0644 25.8281 63.1249 25.7916 63.1743 25.7424C63.2237 25.6932 63.2606 25.6328 63.2817 25.5664C63.3029 25.5 63.3077 25.4294 63.2958 25.3607V22.1652C63.3077 22.0965 63.3029 22.026 63.2817 21.9596C63.2606 21.8931 63.2237 21.8328 63.1743 21.7836C63.1249 21.7344 63.0644 21.6978 62.9979 21.677C62.9314 21.6561 62.8608 21.6516 62.7922 21.6637H58.3289V1.24239C58.3387 1.17397 58.3324 1.10421 58.3106 1.03863C58.2887 0.973059 58.2519 0.913473 58.203 0.864599C58.1542 0.815725 58.0946 0.778906 58.029 0.757062C57.9634 0.735218 57.8937 0.728949 57.8252 0.738751H54.6232C54.5548 0.728949 54.485 0.735218 54.4195 0.757062C54.3539 0.778906 54.2943 0.815725 54.2454 0.864599C54.1965 0.913473 54.1597 0.973059 54.1379 1.03863C54.116 1.10421 54.1098 1.17397 54.1196 1.24239V25.3607C54.1077 25.4294 54.1125 25.5 54.1337 25.5664C54.1548 25.6328 54.1916 25.6932 54.241 25.7424C54.2904 25.7916 54.351 25.8281 54.4175 25.849C54.484 25.8698 54.5546 25.8744 54.6232 25.8622" fill="black"/>
<path d="M66.3178 25.8622H74.1329C74.2015 25.8744 74.2721 25.8698 74.3386 25.849C74.4051 25.8281 74.4657 25.7916 74.5151 25.7424C74.5645 25.6932 74.6013 25.6328 74.6224 25.5664C74.6436 25.5 74.6484 25.4294 74.6365 25.3607V22.1652C74.6484 22.0965 74.6436 22.026 74.6224 21.9596C74.6013 21.8931 74.5645 21.8328 74.5151 21.7836C74.4657 21.7344 74.4051 21.6978 74.3386 21.677C74.2721 21.6561 74.2015 21.6516 74.1329 21.6637H70.0234V14.3067H73.5837C73.6522 14.3164 73.722 14.3101 73.7876 14.2882C73.8533 14.2664 73.913 14.2296 73.962 14.1808C74.011 14.132 74.048 14.0725 74.0702 14.0069C74.0923 13.9414 74.0989 13.8716 74.0895 13.803V10.6097C74.0989 10.5411 74.0923 10.4714 74.0702 10.4058C74.048 10.3403 74.011 10.2807 73.962 10.2319C73.913 10.1831 73.8533 10.1463 73.7876 10.1245C73.722 10.1026 73.6522 10.0963 73.5837 10.106H70.0234V4.93938H74.1264C74.1952 4.95166 74.266 4.94712 74.3328 4.92615C74.3995 4.90518 74.4601 4.86841 74.5096 4.81896C74.5591 4.7695 74.5958 4.70883 74.6168 4.64211C74.6378 4.57539 74.6423 4.50459 74.63 4.43574V1.24239C74.6398 1.17397 74.6336 1.10421 74.6117 1.03863C74.5899 0.973059 74.5531 0.913473 74.5042 0.864599C74.4553 0.815725 74.3957 0.778906 74.3301 0.757062C74.2646 0.735218 74.1948 0.728949 74.1264 0.738751H66.3113C66.2428 0.728949 66.1731 0.735218 66.1075 0.757062C66.0419 0.778906 65.9823 0.815725 65.9335 0.864599C65.8846 0.913473 65.8478 0.973059 65.8259 1.03863C65.8041 1.10421 65.7978 1.17397 65.8076 1.24239V25.3607C65.7957 25.4294 65.8006 25.5 65.8217 25.5664C65.8429 25.6328 65.8797 25.6932 65.9291 25.7424C65.9785 25.7916 66.039 25.8281 66.1055 25.849C66.1721 25.8698 66.2426 25.8744 66.3113 25.8622" fill="black"/>
<path d="M77.4718 4.93937H79.9921V25.3607C79.991 25.4286 80.0048 25.4958 80.0326 25.5577C80.0603 25.6196 80.1014 25.6747 80.1528 25.7189C80.245 25.8081 80.3675 25.8593 80.4958 25.8622H83.6978C83.7665 25.8744 83.837 25.8698 83.9036 25.849C83.9701 25.8281 84.0306 25.7915 84.08 25.7424C84.1294 25.6932 84.1662 25.6328 84.1874 25.5664C84.2085 25.5 84.2133 25.4294 84.2015 25.3607V4.93937H86.7566C86.825 4.94917 86.8948 4.9429 86.9603 4.92106C87.0259 4.89921 87.0855 4.86239 87.1344 4.81352C87.1833 4.76465 87.2201 4.70506 87.2419 4.63949C87.2638 4.57391 87.27 4.50415 87.2602 4.43573V1.24238C87.2696 1.17405 87.263 1.10448 87.241 1.03912C87.219 0.973755 87.1821 0.914369 87.1334 0.865601C87.0846 0.816833 87.0252 0.780005 86.9599 0.757998C86.8945 0.73599 86.8249 0.729399 86.7566 0.738739H77.4718C77.4034 0.729399 77.3339 0.73599 77.2685 0.757998C77.2031 0.780005 77.1438 0.816833 77.095 0.865601C77.0462 0.914369 77.0094 0.973755 76.9874 1.03912C76.9654 1.10448 76.9588 1.17405 76.9681 1.24238V4.43573C76.9583 4.50415 76.9646 4.57391 76.9864 4.63949C77.0083 4.70506 77.0451 4.76465 77.094 4.81352C77.1428 4.86239 77.2024 4.89921 77.268 4.92106C77.3336 4.9429 77.4033 4.94917 77.4718 4.93937" fill="black"/>
<path d="M93.9531 4.57043H95.1059C95.2217 4.56869 95.3367 4.59093 95.4435 4.63576C95.5504 4.68059 95.6468 4.74704 95.7267 4.83093C95.8059 4.91071 95.8681 5.0057 95.9095 5.11017C95.9509 5.21465 95.9707 5.32643 95.9677 5.43878V10.9311C95.9713 11.0441 95.9518 11.1567 95.9103 11.262C95.8689 11.3673 95.8064 11.463 95.7267 11.5433C95.6469 11.6242 95.5515 11.6881 95.4463 11.731C95.3411 11.7739 95.2282 11.795 95.1145 11.7929H93.9618L93.9531 4.57043ZM90.2474 25.8449H93.4495C93.5624 25.8555 93.6754 25.8252 93.7678 25.7594C93.8603 25.6937 93.926 25.5969 93.9531 25.4867V16.5666L96.5799 25.3608C96.6296 25.5062 96.7247 25.6318 96.8512 25.719C96.9696 25.8102 97.1143 25.8604 97.2637 25.8623H100.54C100.851 25.8623 100.97 25.6951 100.898 25.3608L97.6957 15.1317C98.4305 14.7579 99.0519 14.1942 99.4954 13.4992C99.9529 12.7877 100.191 11.9571 100.179 11.1113V5.26077C100.182 4.65603 100.059 4.05732 99.8188 3.50236C99.3579 2.41845 98.4939 1.556 97.4092 1.09704C96.852 0.856561 96.2511 0.733872 95.6442 0.736676H90.2474C90.179 0.726874 90.1093 0.733143 90.0437 0.754987C89.9781 0.776831 89.9185 0.813649 89.8697 0.862523C89.8208 0.911397 89.784 0.970984 89.7621 1.03656C89.7403 1.10213 89.734 1.1719 89.7438 1.24032V25.3587C89.7319 25.4274 89.7368 25.4979 89.7579 25.5643C89.7791 25.6308 89.8159 25.6911 89.8653 25.7403C89.9147 25.7895 89.9752 25.8261 90.0417 25.8469C90.1082 25.8678 90.1788 25.8723 90.2474 25.8601" fill="black"/>
<path d="M103.813 25.8622H111.628C111.697 25.8744 111.768 25.8698 111.834 25.849C111.901 25.8281 111.961 25.7916 112.011 25.7424C112.06 25.6932 112.097 25.6328 112.118 25.5664C112.139 25.5 112.144 25.4294 112.132 25.3607V22.1652C112.144 22.0965 112.139 22.026 112.118 21.9596C112.097 21.8931 112.06 21.8328 112.011 21.7836C111.961 21.7344 111.901 21.6978 111.834 21.677C111.768 21.6561 111.697 21.6516 111.628 21.6637H107.525V14.3067H111.088C111.157 14.319 111.227 14.3144 111.294 14.2934C111.361 14.2725 111.422 14.2357 111.471 14.1863C111.52 14.1368 111.557 14.0761 111.578 14.0094C111.599 13.9427 111.604 13.8719 111.591 13.803V10.6097C111.601 10.5413 111.595 10.4715 111.573 10.4059C111.551 10.3404 111.514 10.2808 111.466 10.2319C111.417 10.183 111.357 10.1462 111.292 10.1244C111.226 10.1025 111.156 10.0962 111.088 10.106H107.519V4.93938H111.622C111.691 4.95166 111.762 4.94712 111.828 4.92615C111.895 4.90518 111.956 4.86841 112.005 4.81896C112.055 4.7695 112.091 4.70883 112.112 4.64211C112.133 4.57539 112.138 4.50459 112.125 4.43574V1.24239C112.135 1.17397 112.129 1.10421 112.107 1.03863C112.085 0.973059 112.049 0.913473 112 0.864599C111.951 0.815725 111.891 0.778906 111.826 0.757062C111.76 0.735218 111.69 0.728949 111.622 0.738751H103.807C103.738 0.728949 103.669 0.735218 103.603 0.757062C103.537 0.778906 103.478 0.815725 103.429 0.864599C103.38 0.913473 103.343 0.973059 103.321 1.03863C103.3 1.10421 103.293 1.17397 103.303 1.24239V25.3607C103.291 25.4294 103.296 25.5 103.317 25.5664C103.338 25.6328 103.375 25.6932 103.425 25.7424C103.474 25.7916 103.534 25.8281 103.601 25.849C103.668 25.8698 103.738 25.8744 103.807 25.8622" fill="black"/>
<path d="M115.699 25.8622H123.514C123.582 25.8744 123.653 25.8698 123.719 25.849C123.786 25.8281 123.846 25.7916 123.896 25.7424C123.945 25.6932 123.982 25.6328 124.003 25.5664C124.024 25.5 124.029 25.4294 124.017 25.3607V22.1652C124.029 22.0965 124.024 22.026 124.003 21.9596C123.982 21.8931 123.945 21.8328 123.896 21.7836C123.846 21.7344 123.786 21.6978 123.719 21.677C123.653 21.6561 123.582 21.6516 123.514 21.6637H119.389V14.3067H122.951C123.02 14.319 123.091 14.3144 123.158 14.2934C123.225 14.2725 123.285 14.2357 123.335 14.1863C123.384 14.1368 123.421 14.0761 123.442 14.0094C123.463 13.9427 123.467 13.8719 123.455 13.803V10.6097C123.465 10.5413 123.459 10.4715 123.437 10.4059C123.415 10.3404 123.378 10.2808 123.329 10.2319C123.28 10.183 123.221 10.1462 123.155 10.1244C123.09 10.1025 123.02 10.0962 122.951 10.106H119.389V4.93938H123.492C123.56 4.94918 123.63 4.94291 123.696 4.92107C123.761 4.89923 123.821 4.86241 123.87 4.81353C123.919 4.76466 123.955 4.70507 123.977 4.6395C123.999 4.57392 124.005 4.50416 123.996 4.43574V1.24239C124.005 1.17406 123.998 1.10449 123.976 1.03913C123.954 0.973767 123.918 0.91438 123.869 0.865612C123.82 0.816845 123.761 0.780017 123.695 0.75801C123.63 0.736002 123.56 0.729411 123.492 0.738751H115.699C115.63 0.728949 115.56 0.735218 115.495 0.757062C115.429 0.778906 115.37 0.815725 115.321 0.864599C115.272 0.913473 115.235 0.973059 115.213 1.03863C115.191 1.10421 115.185 1.17397 115.195 1.24239V25.3607C115.183 25.4294 115.188 25.5 115.209 25.5664C115.23 25.6328 115.267 25.6932 115.316 25.7424C115.366 25.7916 115.426 25.8281 115.493 25.849C115.559 25.8698 115.63 25.8744 115.699 25.8622" fill="black"/>
</g>
<defs>
<clipPath id="clip0">
<rect width="124" height="31.0217" fill="white" transform="translate(0 0.489136)"/>
</clipPath>
</defs>
</svg>
