<svg width="124" height="34" viewBox="0 0 124 34" fill="none" xmlns="http://www.w3.org/2000/svg">
<g clip-path="url(#clip0)">
<path d="M51.552 3.30755V7.0616C50.3872 6.22308 49.3413 5.80305 48.4101 5.80305C47.4051 5.80305 46.5856 6.16159 45.9478 6.87611C45.3113 7.55506 44.9932 8.46143 44.9932 9.59242C44.9932 10.5915 45.2199 11.4489 45.6727 12.1626C45.9047 12.544 46.2876 13.0372 46.8222 13.641C47.3538 14.2445 48.0419 14.973 48.8873 15.8234C50.4431 17.4126 51.5027 18.787 52.0642 19.9462C52.6276 21.068 52.9071 22.4401 52.9071 24.0689C52.9071 26.2747 52.2924 28.0938 51.0573 29.5219C49.8178 30.9138 48.2319 31.6118 46.299 31.6118C44.6697 31.6118 43.2793 31.1616 42.1282 30.2603V26.4536C43.4869 27.4515 44.7239 27.9515 45.8391 27.9515C46.8801 27.9515 47.692 27.6011 48.28 26.9072C48.8702 26.211 49.1642 25.2637 49.1642 24.0689C49.1642 23.0347 48.936 22.103 48.484 21.2781C48.2492 20.883 47.9263 20.4282 47.5075 19.9175C47.0915 19.407 46.5724 18.8363 45.9478 18.2074C44.9818 17.2469 44.1783 16.3962 43.5428 15.6572C42.905 14.9173 42.4344 14.2691 42.1277 13.7147C41.54 12.6325 41.2465 11.2639 41.2465 9.61224C41.2465 7.38126 41.8205 5.61197 42.9736 4.30616C44.1374 2.98713 45.695 2.328 47.6569 2.328C49.0156 2.328 50.3148 2.65477 51.5517 3.3073L51.552 3.30755ZM55.2168 2.7155H65.3734V5.9705H59.0367V15.0103H64.6569V18.2645H59.0367V28.0046H65.3734V31.2574H55.2168V2.71525V2.7155ZM68.201 2.7155H78.3578V5.9705H72.0206V15.0103H77.6438V18.2645H72.0206V28.0046H78.3578V31.2574H68.201V2.71525V2.7155ZM84.6653 27.8949C86.9908 27.8949 88.5462 27.1859 89.3318 25.7676C90.1399 24.351 90.5439 21.5965 90.5439 17.5048C90.5439 13.1046 90.1564 10.0775 89.3872 8.42713C88.615 6.7765 87.2012 5.95068 85.1438 5.95068H84.6653V27.8949ZM80.8444 2.71474H85.5476C86.9799 2.71474 88.1861 2.8766 89.1685 3.196C90.072 3.50346 90.8798 4.05231 91.5905 4.84129C92.6565 6.02463 93.4149 7.56573 93.8703 9.46283C94.3223 11.2989 94.5487 13.9301 94.5487 17.3577C94.5487 20.5009 94.2972 23.0642 93.7946 25.0474C93.3067 26.9463 92.4961 28.3932 91.3715 29.3915C89.9859 30.6356 87.5067 31.2571 83.9335 31.2571H80.845V2.71525L80.8444 2.71474V2.71474ZM101.374 15.3617C102.855 15.3617 103.904 15.0172 104.515 14.3265C105.127 13.6367 105.434 12.4708 105.434 10.8309C105.434 9.9446 105.371 9.18764 105.24 8.55621C105.112 7.93011 104.908 7.4181 104.634 7.02425C104.37 6.63873 104 6.337 103.569 6.15472C103.134 5.97076 102.617 5.87852 102.016 5.87852H101.374V15.362V15.3617V15.3617ZM97.5532 2.71525H102.585C104.666 2.71525 106.215 3.21582 107.233 4.21316C108.519 5.50728 109.162 7.4862 109.162 10.1474C109.162 12.1946 108.821 13.8361 108.143 15.0751C107.463 16.3133 106.492 17.0804 105.232 17.3752L110.448 31.2576H106.572L101.373 17.2835V31.2574L97.5532 31.2576V2.71525V2.71525Z" fill="#222F39"/>
<path d="M121.957 3.3073V7.06186C120.793 6.22282 119.747 5.8028 118.816 5.8028C117.811 5.8028 116.991 6.16158 116.353 6.87611C115.717 7.55506 115.398 8.46118 115.398 9.59242C115.398 10.5913 115.626 11.4489 116.078 12.1626C116.31 12.544 116.693 13.0372 117.225 13.6407C117.757 14.2445 118.449 14.973 119.294 15.8234C120.848 17.4126 121.908 18.787 122.471 19.9459C123.032 21.0678 123.316 22.4401 123.316 24.0689C123.316 26.2745 122.696 28.0938 121.462 29.5219C120.224 30.9138 118.637 31.6118 116.702 31.6118C115.074 31.6118 113.685 31.1616 112.533 30.2605V26.4536C113.893 27.4515 115.13 27.9515 116.243 27.9515C117.285 27.9515 118.099 27.6009 118.69 26.9072C119.275 26.211 119.569 25.2634 119.569 24.0689C119.569 23.0347 119.341 22.1027 118.889 21.2782C118.656 20.883 118.332 20.4279 117.916 19.9172C117.497 19.407 116.978 18.836 116.353 18.2076C115.386 17.2469 114.585 16.3959 113.948 15.6572C113.31 14.9173 112.84 14.2691 112.533 13.7147C111.946 12.6322 111.651 11.2639 111.651 9.61224C111.651 7.38126 112.227 5.61197 113.377 4.3059C114.542 2.98713 116.102 2.328 118.063 2.328C119.421 2.328 120.719 2.65477 121.957 3.30704" fill="#222F39"/>
<path d="M27.3168 5.51623C21.051 -0.739168 10.9326 -0.725701 4.68759 5.5612C-0.995825 11.2812 -1.50351 20.2158 3.12692 26.533C0.397651 22.2209 0.895684 16.4338 4.63652 12.6678C8.77985 8.49959 25.8644 5.74466 27.3168 5.51623V5.51623Z" fill="#BADD64"/>
<path d="M27.4104 5.60925C27.1842 7.07108 24.4489 24.2692 20.3068 28.4374C16.5632 32.206 10.8104 32.7055 6.52374 29.9547C12.8012 34.6186 21.6817 34.1092 27.3664 28.3882C33.6147 22.1 33.6276 11.9175 27.4104 5.60925" fill="#65982C"/>
<path d="M22.2951 23.3768C18.9567 26.7367 13.4263 26.614 9.93775 23.1024C6.44949 19.5933 6.32752 14.0252 9.66485 10.6655C10.4449 9.88088 11.8394 9.17626 13.5132 8.55652C9.72354 9.67785 6.22486 11.068 4.63573 12.6673C0.310469 17.0231 0.310469 24.084 4.63573 28.4372C8.96379 32.7924 15.9784 32.7929 20.306 28.4372C21.8949 26.8389 23.2746 23.3222 24.3878 19.5122C23.7734 21.1926 23.0746 22.5924 22.2951 23.3766" fill="#80CB0F"/>
</g>
<defs>
<clipPath id="clip0">
<rect width="124" height="32.5246" fill="white" transform="translate(0 0.737671)"/>
</clipPath>
</defs>
</svg>
